<svg width="1272" height="680" viewBox="0 0 1272 680" fill="none" xmlns="http://www.w3.org/2000/svg">
<g clip-path="url(#clip0_2001_4989)">
<rect x="-42.75" y="-19.75" width="96.5" height="39.5" fill="#0D0D0D" stroke="#181818" stroke-width="0.5"/>
<rect x="54.25" y="-19.75" width="96.5" height="39.5" fill="#0D0D0D" stroke="#181818" stroke-width="0.5"/>
<rect x="151.25" y="-19.75" width="96.5" height="39.5" fill="#0D0D0D" stroke="#181818" stroke-width="0.5"/>
<rect x="248.25" y="-19.75" width="96.5" height="39.5" fill="#0D0D0D" stroke="#181818" stroke-width="0.5"/>
<rect x="345.25" y="-19.75" width="96.5" height="39.5" fill="#181818" stroke="#252525" stroke-width="0.5"/>
<rect x="442.25" y="-19.75" width="96.5" height="39.5" fill="#0D0D0D" stroke="#181818" stroke-width="0.5"/>
<rect x="539.25" y="-19.75" width="96.5" height="39.5" fill="#0D0D0D" stroke="#181818" stroke-width="0.5"/>
<rect x="636.25" y="-19.75" width="96.5" height="39.5" fill="#0D0D0D" stroke="#181818" stroke-width="0.5"/>
<rect x="733.25" y="-19.75" width="96.5" height="39.5" fill="#0D0D0D" stroke="#181818" stroke-width="0.5"/>
<rect x="830.25" y="-19.75" width="96.5" height="39.5" fill="#0D0D0D" stroke="#181818" stroke-width="0.5"/>
<rect x="927.25" y="-19.75" width="96.5" height="39.5" fill="#0D0D0D" stroke="#181818" stroke-width="0.5"/>
<rect x="1024.25" y="-19.75" width="96.5" height="39.5" fill="#0D0D0D" stroke="#181818" stroke-width="0.5"/>
<rect x="1121.25" y="-19.75" width="96.5" height="39.5" fill="#0D0D0D" stroke="#181818" stroke-width="0.5"/>
<rect x="1218.25" y="-19.75" width="96.5" height="39.5" fill="#0D0D0D" stroke="#181818" stroke-width="0.5"/>
<rect x="-42.75" y="20.25" width="96.5" height="39.5" fill="#0D0D0D" stroke="#181818" stroke-width="0.5"/>
<rect x="54.25" y="20.25" width="96.5" height="39.5" fill="#0D0D0D" stroke="#181818" stroke-width="0.5"/>
<rect x="151.25" y="20.25" width="96.5" height="39.5" fill="#0D0D0D" stroke="#181818" stroke-width="0.5"/>
<rect x="248.25" y="20.25" width="96.5" height="39.5" fill="#0D0D0D" stroke="#181818" stroke-width="0.5"/>
<rect x="345.25" y="20.25" width="96.5" height="39.5" fill="#181818" stroke="#252525" stroke-width="0.5"/>
<rect x="442.25" y="20.25" width="96.5" height="39.5" fill="#0D0D0D" stroke="#181818" stroke-width="0.5"/>
<rect x="539.25" y="20.25" width="96.5" height="39.5" fill="#0D0D0D" stroke="#181818" stroke-width="0.5"/>
<rect x="636.25" y="20.25" width="96.5" height="39.5" fill="#0D0D0D" stroke="#181818" stroke-width="0.5"/>
<rect x="733.25" y="20.25" width="96.5" height="39.5" fill="#0D0D0D" stroke="#181818" stroke-width="0.5"/>
<rect x="830.25" y="20.25" width="96.5" height="39.5" fill="#0D0D0D" stroke="#181818" stroke-width="0.5"/>
<rect x="927.25" y="20.25" width="96.5" height="39.5" fill="#0D0D0D" stroke="#181818" stroke-width="0.5"/>
<rect x="1024.25" y="20.25" width="96.5" height="39.5" fill="#181818" stroke="#1E1E1E" stroke-width="0.5"/>
<rect x="1121.25" y="20.25" width="96.5" height="39.5" fill="#0D0D0D" stroke="#181818" stroke-width="0.5"/>
<rect x="1218.25" y="20.25" width="96.5" height="39.5" fill="#0D0D0D" stroke="#181818" stroke-width="0.5"/>
<rect x="-42.75" y="60.25" width="96.5" height="39.5" fill="#0D0D0D" stroke="#181818" stroke-width="0.5"/>
<rect x="54.25" y="60.25" width="96.5" height="39.5" fill="#131313" stroke="#1E1E1E" stroke-width="0.5"/>
<rect x="151.25" y="60.25" width="96.5" height="39.5" fill="#0D0D0D" stroke="#181818" stroke-width="0.5"/>
<rect x="248.25" y="60.25" width="96.5" height="39.5" fill="#181818" stroke="#252525" stroke-width="0.5"/>
<rect x="345.25" y="60.25" width="96.5" height="39.5" fill="#0D0D0D" stroke="#181818" stroke-width="0.5"/>
<rect x="442.25" y="60.25" width="96.5" height="39.5" fill="#0D0D0D" stroke="#181818" stroke-width="0.5"/>
<rect x="539.25" y="60.25" width="96.5" height="39.5" fill="#0D0D0D" stroke="#181818" stroke-width="0.5"/>
<rect x="636.25" y="60.25" width="96.5" height="39.5" fill="#0D0D0D" stroke="#181818" stroke-width="0.5"/>
<rect x="733.25" y="60.25" width="96.5" height="39.5" fill="#0D0D0D" stroke="#181818" stroke-width="0.5"/>
<rect x="830.25" y="60.25" width="96.5" height="39.5" fill="#0D0D0D" stroke="#181818" stroke-width="0.5"/>
<rect x="927.25" y="60.25" width="96.5" height="39.5" fill="#181818" stroke="#1E1E1E" stroke-width="0.5"/>
<rect x="1024.25" y="60.25" width="96.5" height="39.5" fill="#0D0D0D" stroke="#181818" stroke-width="0.5"/>
<rect x="1121.25" y="60.25" width="96.5" height="39.5" fill="#0D0D0D" stroke="#181818" stroke-width="0.5"/>
<rect x="1218.25" y="60.25" width="96.5" height="39.5" fill="#0D0D0D" stroke="#181818" stroke-width="0.5"/>
<rect x="-42.75" y="100.25" width="96.5" height="39.5" fill="#131313" stroke="#1E1E1E" stroke-width="0.5"/>
<rect x="54.25" y="100.25" width="96.5" height="39.5" fill="#0D0D0D" stroke="#181818" stroke-width="0.5"/>
<rect x="151.25" y="100.25" width="96.5" height="39.5" fill="#0D0D0D" stroke="#181818" stroke-width="0.5"/>
<rect x="248.25" y="100.25" width="96.5" height="39.5" fill="#0D0D0D" stroke="#181818" stroke-width="0.5"/>
<rect x="345.25" y="100.25" width="96.5" height="39.5" fill="#0D0D0D" stroke="#181818" stroke-width="0.5"/>
<rect x="442.25" y="100.25" width="96.5" height="39.5" fill="#0D0D0D" stroke="#181818" stroke-width="0.5"/>
<rect x="539.25" y="100.25" width="96.5" height="39.5" fill="#0D0D0D" stroke="#181818" stroke-width="0.5"/>
<rect x="636.25" y="100.25" width="96.5" height="39.5" fill="#0D0D0D" stroke="#181818" stroke-width="0.5"/>
<rect x="733.25" y="100.25" width="96.5" height="39.5" fill="#0D0D0D" stroke="#181818" stroke-width="0.5"/>
<rect x="830.25" y="100.25" width="96.5" height="39.5" fill="#0D0D0D" stroke="#181818" stroke-width="0.5"/>
<rect x="927.25" y="100.25" width="96.5" height="39.5" fill="#0D0D0D" stroke="#181818" stroke-width="0.5"/>
<rect x="1024.25" y="100.25" width="96.5" height="39.5" fill="#181818" stroke="#1E1E1E" stroke-width="0.5"/>
<rect x="1121.25" y="100.25" width="96.5" height="39.5" fill="#0D0D0D" stroke="#181818" stroke-width="0.5"/>
<rect x="1218.25" y="100.25" width="96.5" height="39.5" fill="#0D0D0D" stroke="#181818" stroke-width="0.5"/>
<rect x="-42.75" y="140.25" width="96.5" height="39.5" fill="#0D0D0D" stroke="#181818" stroke-width="0.5"/>
<rect x="54.25" y="140.25" width="96.5" height="39.5" fill="#0D0D0D" stroke="#181818" stroke-width="0.5"/>
<rect x="151.25" y="140.25" width="96.5" height="39.5" fill="#0D0D0D" stroke="#181818" stroke-width="0.5"/>
<rect x="248.25" y="140.25" width="96.5" height="39.5" fill="#0D0D0D" stroke="#181818" stroke-width="0.5"/>
<rect x="345.25" y="140.25" width="96.5" height="39.5" fill="#0D0D0D" stroke="#181818" stroke-width="0.5"/>
<rect x="442.25" y="140.25" width="96.5" height="39.5" fill="#0D0D0D" stroke="#181818" stroke-width="0.5"/>
<rect x="539.25" y="140.25" width="96.5" height="39.5" fill="#0D0D0D" stroke="#181818" stroke-width="0.5"/>
<rect x="636.25" y="140.25" width="96.5" height="39.5" fill="#0D0D0D" stroke="#181818" stroke-width="0.5"/>
<rect x="733.25" y="140.25" width="96.5" height="39.5" fill="#0D0D0D" stroke="#181818" stroke-width="0.5"/>
<rect x="830.25" y="140.25" width="96.5" height="39.5" fill="#0D0D0D" stroke="#181818" stroke-width="0.5"/>
<rect x="927.25" y="140.25" width="96.5" height="39.5" fill="#0D0D0D" stroke="#181818" stroke-width="0.5"/>
<rect x="1024.25" y="140.25" width="96.5" height="39.5" fill="#0D0D0D" stroke="#181818" stroke-width="0.5"/>
<rect x="1121.25" y="140.25" width="96.5" height="39.5" fill="#0D0D0D" stroke="#181818" stroke-width="0.5"/>
<rect x="1218.25" y="140.25" width="96.5" height="39.5" fill="#0D0D0D" stroke="#181818" stroke-width="0.5"/>
<rect x="-42.75" y="180.25" width="96.5" height="39.5" fill="#0D0D0D" stroke="#181818" stroke-width="0.5"/>
<rect x="54.25" y="180.25" width="96.5" height="39.5" fill="#0D0D0D" stroke="#181818" stroke-width="0.5"/>
<rect x="151.25" y="180.25" width="96.5" height="39.5" fill="#0D0D0D" stroke="#181818" stroke-width="0.5"/>
<rect x="248.25" y="180.25" width="96.5" height="39.5" fill="#0D0D0D" stroke="#181818" stroke-width="0.5"/>
<rect x="345.25" y="180.25" width="96.5" height="39.5" fill="#0D0D0D" stroke="#181818" stroke-width="0.5"/>
<rect x="442.25" y="180.25" width="96.5" height="39.5" fill="#0D0D0D" stroke="#181818" stroke-width="0.5"/>
<rect x="539.25" y="180.25" width="96.5" height="39.5" fill="#0D0D0D" stroke="#181818" stroke-width="0.5"/>
<rect x="636.25" y="180.25" width="96.5" height="39.5" fill="#0D0D0D" stroke="#181818" stroke-width="0.5"/>
<rect x="733.25" y="180.25" width="96.5" height="39.5" fill="#0D0D0D" stroke="#181818" stroke-width="0.5"/>
<rect x="830.25" y="180.25" width="96.5" height="39.5" fill="#0D0D0D" stroke="#181818" stroke-width="0.5"/>
<rect x="927.25" y="180.25" width="96.5" height="39.5" fill="#0D0D0D" stroke="#181818" stroke-width="0.5"/>
<rect x="1024.25" y="180.25" width="96.5" height="39.5" fill="#0D0D0D" stroke="#181818" stroke-width="0.5"/>
<rect x="1121.25" y="180.25" width="96.5" height="39.5" fill="#0D0D0D" stroke="#181818" stroke-width="0.5"/>
<rect x="1218.25" y="180.25" width="96.5" height="39.5" fill="#0D0D0D" stroke="#181818" stroke-width="0.5"/>
<rect x="-42.75" y="220.25" width="96.5" height="39.5" fill="#0D0D0D" stroke="#181818" stroke-width="0.5"/>
<rect x="54.25" y="220.25" width="96.5" height="39.5" fill="#0D0D0D" stroke="#181818" stroke-width="0.5"/>
<rect x="151.25" y="220.25" width="96.5" height="39.5" fill="#0D0D0D" stroke="#181818" stroke-width="0.5"/>
<rect x="248.25" y="220.25" width="96.5" height="39.5" fill="#0D0D0D" stroke="#181818" stroke-width="0.5"/>
<rect x="345.25" y="220.25" width="96.5" height="39.5" fill="#0D0D0D" stroke="#181818" stroke-width="0.5"/>
<rect x="442.25" y="220.25" width="96.5" height="39.5" fill="#0D0D0D" stroke="#181818" stroke-width="0.5"/>
<rect x="539.25" y="220.25" width="96.5" height="39.5" fill="#0D0D0D" stroke="#181818" stroke-width="0.5"/>
<rect x="636.25" y="220.25" width="96.5" height="39.5" fill="#0D0D0D" stroke="#181818" stroke-width="0.5"/>
<rect x="733.25" y="220.25" width="96.5" height="39.5" fill="#0D0D0D" stroke="#181818" stroke-width="0.5"/>
<rect x="830.25" y="220.25" width="96.5" height="39.5" fill="#0D0D0D" stroke="#181818" stroke-width="0.5"/>
<rect x="927.25" y="220.25" width="96.5" height="39.5" fill="#0D0D0D" stroke="#181818" stroke-width="0.5"/>
<rect x="1024.25" y="220.25" width="96.5" height="39.5" fill="#0D0D0D" stroke="#181818" stroke-width="0.5"/>
<rect x="1121.25" y="220.25" width="96.5" height="39.5" fill="#0D0D0D" stroke="#181818" stroke-width="0.5"/>
<rect x="1218.25" y="220.25" width="96.5" height="39.5" fill="#0D0D0D" stroke="#181818" stroke-width="0.5"/>
<rect x="-42.75" y="260.25" width="96.5" height="39.5" fill="#0D0D0D" stroke="#181818" stroke-width="0.5"/>
<rect x="54.25" y="260.25" width="96.5" height="39.5" fill="#0D0D0D" stroke="#181818" stroke-width="0.5"/>
<rect x="151.25" y="260.25" width="96.5" height="39.5" fill="#0D0D0D" stroke="#181818" stroke-width="0.5"/>
<rect x="248.25" y="260.25" width="96.5" height="39.5" fill="#0D0D0D" stroke="#181818" stroke-width="0.5"/>
<rect x="345.25" y="260.25" width="96.5" height="39.5" fill="#0D0D0D" stroke="#181818" stroke-width="0.5"/>
<rect x="442.25" y="260.25" width="96.5" height="39.5" fill="#0D0D0D" stroke="#181818" stroke-width="0.5"/>
<rect x="539.25" y="260.25" width="96.5" height="39.5" fill="#0D0D0D" stroke="#181818" stroke-width="0.5"/>
<rect x="636.25" y="260.25" width="96.5" height="39.5" fill="#0D0D0D" stroke="#181818" stroke-width="0.5"/>
<rect x="733.25" y="260.25" width="96.5" height="39.5" fill="#0D0D0D" stroke="#181818" stroke-width="0.5"/>
<rect x="830.25" y="260.25" width="96.5" height="39.5" fill="#0D0D0D" stroke="#181818" stroke-width="0.5"/>
<rect x="927.25" y="260.25" width="96.5" height="39.5" fill="#0D0D0D" stroke="#181818" stroke-width="0.5"/>
<rect x="1024.25" y="260.25" width="96.5" height="39.5" fill="#0D0D0D" stroke="#181818" stroke-width="0.5"/>
<rect x="1121.25" y="260.25" width="96.5" height="39.5" fill="#0D0D0D" stroke="#181818" stroke-width="0.5"/>
<rect x="1218.25" y="260.25" width="96.5" height="39.5" fill="#0D0D0D" stroke="#181818" stroke-width="0.5"/>
<rect x="-42.75" y="300.25" width="96.5" height="39.5" fill="#0D0D0D" stroke="#181818" stroke-width="0.5"/>
<rect x="54.25" y="300.25" width="96.5" height="39.5" fill="#0D0D0D" stroke="#181818" stroke-width="0.5"/>
<rect x="151.25" y="300.25" width="96.5" height="39.5" fill="#0D0D0D" stroke="#181818" stroke-width="0.5"/>
<rect x="248.25" y="300.25" width="96.5" height="39.5" fill="#0D0D0D" stroke="#181818" stroke-width="0.5"/>
<rect x="345.25" y="300.25" width="96.5" height="39.5" fill="#0D0D0D" stroke="#181818" stroke-width="0.5"/>
<rect x="442.25" y="300.25" width="96.5" height="39.5" fill="#0D0D0D" stroke="#181818" stroke-width="0.5"/>
<rect x="539.25" y="300.25" width="96.5" height="39.5" fill="#0D0D0D" stroke="#181818" stroke-width="0.5"/>
<rect x="636.25" y="300.25" width="96.5" height="39.5" fill="#0D0D0D" stroke="#181818" stroke-width="0.5"/>
<rect x="733.25" y="300.25" width="96.5" height="39.5" fill="#0D0D0D" stroke="#181818" stroke-width="0.5"/>
<rect x="830.25" y="300.25" width="96.5" height="39.5" fill="#0D0D0D" stroke="#181818" stroke-width="0.5"/>
<rect x="927.25" y="300.25" width="96.5" height="39.5" fill="#0D0D0D" stroke="#181818" stroke-width="0.5"/>
<rect x="1024.25" y="300.25" width="96.5" height="39.5" fill="#0D0D0D" stroke="#181818" stroke-width="0.5"/>
<rect x="1121.25" y="300.25" width="96.5" height="39.5" fill="#0D0D0D" stroke="#181818" stroke-width="0.5"/>
<rect x="1218.25" y="300.25" width="96.5" height="39.5" fill="#0D0D0D" stroke="#181818" stroke-width="0.5"/>
<rect x="-42.75" y="340.25" width="96.5" height="39.5" fill="#0D0D0D" stroke="#181818" stroke-width="0.5"/>
<rect x="54.25" y="340.25" width="96.5" height="39.5" fill="#0D0D0D" stroke="#181818" stroke-width="0.5"/>
<rect x="151.25" y="340.25" width="96.5" height="39.5" fill="#0D0D0D" stroke="#181818" stroke-width="0.5"/>
<rect x="248.25" y="340.25" width="96.5" height="39.5" fill="#0D0D0D" stroke="#181818" stroke-width="0.5"/>
<rect x="345.25" y="340.25" width="96.5" height="39.5" fill="#0D0D0D" stroke="#181818" stroke-width="0.5"/>
<rect x="442.25" y="340.25" width="96.5" height="39.5" fill="#0D0D0D" stroke="#181818" stroke-width="0.5"/>
<rect x="539.25" y="340.25" width="96.5" height="39.5" fill="#0D0D0D" stroke="#181818" stroke-width="0.5"/>
<rect x="636.25" y="340.25" width="96.5" height="39.5" fill="#0D0D0D" stroke="#181818" stroke-width="0.5"/>
<rect x="733.25" y="340.25" width="96.5" height="39.5" fill="#0D0D0D" stroke="#181818" stroke-width="0.5"/>
<rect x="830.25" y="340.25" width="96.5" height="39.5" fill="#0D0D0D" stroke="#181818" stroke-width="0.5"/>
<rect x="927.25" y="340.25" width="96.5" height="39.5" fill="#131313" stroke="#1E1E1E" stroke-width="0.5"/>
<rect x="1024.25" y="340.25" width="96.5" height="39.5" fill="#0D0D0D" stroke="#181818" stroke-width="0.5"/>
<rect x="1121.25" y="340.25" width="96.5" height="39.5" fill="#0D0D0D" stroke="#181818" stroke-width="0.5"/>
<rect x="1218.25" y="340.25" width="96.5" height="39.5" fill="#0D0D0D" stroke="#181818" stroke-width="0.5"/>
<rect x="-42.75" y="380.25" width="96.5" height="39.5" fill="#0D0D0D" stroke="#181818" stroke-width="0.5"/>
<rect x="54.25" y="380.25" width="96.5" height="39.5" fill="#0D0D0D" stroke="#181818" stroke-width="0.5"/>
<rect x="151.25" y="380.25" width="96.5" height="39.5" fill="#0D0D0D" stroke="#181818" stroke-width="0.5"/>
<rect x="248.25" y="380.25" width="96.5" height="39.5" fill="#0D0D0D" stroke="#181818" stroke-width="0.5"/>
<rect x="345.25" y="380.25" width="96.5" height="39.5" fill="#0D0D0D" stroke="#181818" stroke-width="0.5"/>
<rect x="442.25" y="380.25" width="96.5" height="39.5" fill="#0D0D0D" stroke="#181818" stroke-width="0.5"/>
<rect x="539.25" y="380.25" width="96.5" height="39.5" fill="#0D0D0D" stroke="#181818" stroke-width="0.5"/>
<rect x="636.25" y="380.25" width="96.5" height="39.5" fill="#0D0D0D" stroke="#181818" stroke-width="0.5"/>
<rect x="733.25" y="380.25" width="96.5" height="39.5" fill="#0D0D0D" stroke="#181818" stroke-width="0.5"/>
<rect x="830.25" y="380.25" width="96.5" height="39.5" fill="#0D0D0D" stroke="#181818" stroke-width="0.5"/>
<rect x="927.25" y="380.25" width="96.5" height="39.5" fill="#0D0D0D" stroke="#181818" stroke-width="0.5"/>
<rect x="1024.25" y="380.25" width="96.5" height="39.5" fill="#0D0D0D" stroke="#181818" stroke-width="0.5"/>
<rect x="1121.25" y="380.25" width="96.5" height="39.5" fill="#0D0D0D" stroke="#181818" stroke-width="0.5"/>
<rect x="1218.25" y="380.25" width="96.5" height="39.5" fill="#0D0D0D" stroke="#181818" stroke-width="0.5"/>
<rect x="-42.75" y="420.25" width="96.5" height="39.5" fill="#0D0D0D" stroke="#181818" stroke-width="0.5"/>
<rect x="54.25" y="420.25" width="96.5" height="39.5" fill="#0D0D0D" stroke="#181818" stroke-width="0.5"/>
<rect x="151.25" y="420.25" width="96.5" height="39.5" fill="#131313" stroke="#1E1E1E" stroke-width="0.5"/>
<rect x="248.25" y="420.25" width="96.5" height="39.5" fill="#131313" stroke="#1E1E1E" stroke-width="0.5"/>
<rect x="345.25" y="420.25" width="96.5" height="39.5" fill="#0D0D0D" stroke="#181818" stroke-width="0.5"/>
<rect x="442.25" y="420.25" width="96.5" height="39.5" fill="#0D0D0D" stroke="#181818" stroke-width="0.5"/>
<rect x="539.25" y="420.25" width="96.5" height="39.5" fill="#0D0D0D" stroke="#181818" stroke-width="0.5"/>
<rect x="636.25" y="420.25" width="96.5" height="39.5" fill="#0D0D0D" stroke="#181818" stroke-width="0.5"/>
<rect x="733.25" y="420.25" width="96.5" height="39.5" fill="#0D0D0D" stroke="#181818" stroke-width="0.5"/>
<rect x="830.25" y="420.25" width="96.5" height="39.5" fill="#0D0D0D" stroke="#181818" stroke-width="0.5"/>
<rect x="927.25" y="420.25" width="96.5" height="39.5" fill="#0D0D0D" stroke="#181818" stroke-width="0.5"/>
<rect x="1024.25" y="420.25" width="96.5" height="39.5" fill="#0D0D0D" stroke="#181818" stroke-width="0.5"/>
<rect x="1121.25" y="420.25" width="96.5" height="39.5" fill="#0D0D0D" stroke="#181818" stroke-width="0.5"/>
<rect x="1218.25" y="420.25" width="96.5" height="39.5" fill="#0D0D0D" stroke="#181818" stroke-width="0.5"/>
<rect x="-42.75" y="460.25" width="96.5" height="39.5" fill="#0D0D0D" stroke="#181818" stroke-width="0.5"/>
<rect x="54.25" y="460.25" width="96.5" height="39.5" fill="#0D0D0D" stroke="#181818" stroke-width="0.5"/>
<rect x="151.25" y="460.25" width="96.5" height="39.5" fill="#0D0D0D" stroke="#181818" stroke-width="0.5"/>
<rect x="248.25" y="460.25" width="96.5" height="39.5" fill="#181818" stroke="#2B2B2B" stroke-width="0.5"/>
<rect x="345.25" y="460.25" width="96.5" height="39.5" fill="#0D0D0D" stroke="#181818" stroke-width="0.5"/>
<rect x="442.25" y="460.25" width="96.5" height="39.5" fill="#0D0D0D" stroke="#181818" stroke-width="0.5"/>
<rect x="539.25" y="460.25" width="96.5" height="39.5" fill="#0D0D0D" stroke="#181818" stroke-width="0.5"/>
<rect x="636.25" y="460.25" width="96.5" height="39.5" fill="#0D0D0D" stroke="#181818" stroke-width="0.5"/>
<rect x="733.25" y="460.25" width="96.5" height="39.5" fill="#0D0D0D" stroke="#181818" stroke-width="0.5"/>
<rect x="830.25" y="460.25" width="96.5" height="39.5" fill="#0D0D0D" stroke="#181818" stroke-width="0.5"/>
<rect x="927.25" y="460.25" width="96.5" height="39.5" fill="#0D0D0D" stroke="#181818" stroke-width="0.5"/>
<rect x="1024.25" y="460.25" width="96.5" height="39.5" fill="#0D0D0D" stroke="#181818" stroke-width="0.5"/>
<rect x="1121.25" y="460.25" width="96.5" height="39.5" fill="#0D0D0D" stroke="#181818" stroke-width="0.5"/>
<rect x="1218.25" y="460.25" width="96.5" height="39.5" fill="#0D0D0D" stroke="#181818" stroke-width="0.5"/>
<rect x="-42.75" y="500.25" width="96.5" height="39.5" fill="#0D0D0D" stroke="#181818" stroke-width="0.5"/>
<rect x="54.25" y="500.25" width="96.5" height="39.5" fill="#0D0D0D" stroke="#181818" stroke-width="0.5"/>
<rect x="151.25" y="500.25" width="96.5" height="39.5" fill="#0D0D0D" stroke="#181818" stroke-width="0.5"/>
<rect x="248.25" y="500.25" width="96.5" height="39.5" fill="#0D0D0D" stroke="#181818" stroke-width="0.5"/>
<rect x="345.25" y="500.25" width="96.5" height="39.5" fill="#0D0D0D" stroke="#181818" stroke-width="0.5"/>
<rect x="442.25" y="500.25" width="96.5" height="39.5" fill="#0D0D0D" stroke="#181818" stroke-width="0.5"/>
<rect x="539.25" y="500.25" width="96.5" height="39.5" fill="#0D0D0D" stroke="#181818" stroke-width="0.5"/>
<rect x="636.25" y="500.25" width="96.5" height="39.5" fill="#0D0D0D" stroke="#181818" stroke-width="0.5"/>
<rect x="733.25" y="500.25" width="96.5" height="39.5" fill="#0D0D0D" stroke="#181818" stroke-width="0.5"/>
<rect x="830.25" y="500.25" width="96.5" height="39.5" fill="#0D0D0D" stroke="#181818" stroke-width="0.5"/>
<rect x="927.25" y="500.25" width="96.5" height="39.5" fill="#131313" stroke="#1E1E1E" stroke-width="0.5"/>
<rect x="1024.25" y="500.25" width="96.5" height="39.5" fill="#0D0D0D" stroke="#181818" stroke-width="0.5"/>
<rect x="1121.25" y="500.25" width="96.5" height="39.5" fill="#0D0D0D" stroke="#181818" stroke-width="0.5"/>
<rect x="1218.25" y="500.25" width="96.5" height="39.5" fill="#0D0D0D" stroke="#181818" stroke-width="0.5"/>
<rect x="-42.75" y="540.25" width="96.5" height="39.5" fill="#0D0D0D" stroke="#181818" stroke-width="0.5"/>
<rect x="54.25" y="540.25" width="96.5" height="39.5" fill="#0D0D0D" stroke="#181818" stroke-width="0.5"/>
<rect x="151.25" y="540.25" width="96.5" height="39.5" fill="#0D0D0D" stroke="#181818" stroke-width="0.5"/>
<rect x="248.25" y="540.25" width="96.5" height="39.5" fill="#0D0D0D" stroke="#181818" stroke-width="0.5"/>
<rect x="345.25" y="540.25" width="96.5" height="39.5" fill="#0D0D0D" stroke="#181818" stroke-width="0.5"/>
<rect x="442.25" y="540.25" width="96.5" height="39.5" fill="#0D0D0D" stroke="#181818" stroke-width="0.5"/>
<rect x="539.25" y="540.25" width="96.5" height="39.5" fill="#0D0D0D" stroke="#181818" stroke-width="0.5"/>
<rect x="636.25" y="540.25" width="96.5" height="39.5" fill="#0D0D0D" stroke="#181818" stroke-width="0.5"/>
<rect x="733.25" y="540.25" width="96.5" height="39.5" fill="#131313" stroke="#1E1E1E" stroke-width="0.5"/>
<rect x="830.25" y="540.25" width="96.5" height="39.5" fill="#131313" stroke="#1E1E1E" stroke-width="0.5"/>
<rect x="927.25" y="540.25" width="96.5" height="39.5" fill="#181818" stroke="#252525" stroke-width="0.5"/>
<rect x="1024.25" y="540.25" width="96.5" height="39.5" fill="#0D0D0D" stroke="#181818" stroke-width="0.5"/>
<rect x="1121.25" y="540.25" width="96.5" height="39.5" fill="#0D0D0D" stroke="#181818" stroke-width="0.5"/>
<rect x="1218.25" y="540.25" width="96.5" height="39.5" fill="#0D0D0D" stroke="#181818" stroke-width="0.5"/>
<rect x="-42.75" y="580.25" width="96.5" height="39.5" fill="#0D0D0D" stroke="#181818" stroke-width="0.5"/>
<rect x="54.25" y="580.25" width="96.5" height="39.5" fill="#0D0D0D" stroke="#181818" stroke-width="0.5"/>
<rect x="151.25" y="580.25" width="96.5" height="39.5" fill="#0D0D0D" stroke="#181818" stroke-width="0.5"/>
<rect x="248.25" y="580.25" width="96.5" height="39.5" fill="#0D0D0D" stroke="#181818" stroke-width="0.5"/>
<rect x="345.25" y="580.25" width="96.5" height="39.5" fill="#0D0D0D" stroke="#181818" stroke-width="0.5"/>
<rect x="442.25" y="580.25" width="96.5" height="39.5" fill="#0D0D0D" stroke="#181818" stroke-width="0.5"/>
<rect x="539.25" y="580.25" width="96.5" height="39.5" fill="#0D0D0D" stroke="#181818" stroke-width="0.5"/>
<rect x="636.25" y="580.25" width="96.5" height="39.5" fill="#0D0D0D" stroke="#181818" stroke-width="0.5"/>
<rect x="733.25" y="580.25" width="96.5" height="39.5" fill="#0D0D0D" stroke="#181818" stroke-width="0.5"/>
<rect x="830.25" y="580.25" width="96.5" height="39.5" fill="#0D0D0D" stroke="#181818" stroke-width="0.5"/>
<rect x="927.25" y="580.25" width="96.5" height="39.5" fill="#0D0D0D" stroke="#181818" stroke-width="0.5"/>
<rect x="1024.25" y="580.25" width="96.5" height="39.5" fill="#181818" stroke="#252525" stroke-width="0.5"/>
<rect x="1121.25" y="580.25" width="96.5" height="39.5" fill="#0D0D0D" stroke="#181818" stroke-width="0.5"/>
<rect x="1218.25" y="580.25" width="96.5" height="39.5" fill="#0D0D0D" stroke="#181818" stroke-width="0.5"/>
<rect x="-42.75" y="620.25" width="96.5" height="39.5" fill="#0D0D0D" stroke="#181818" stroke-width="0.5"/>
<rect x="54.25" y="620.25" width="96.5" height="39.5" fill="#0D0D0D" stroke="#181818" stroke-width="0.5"/>
<rect x="151.25" y="620.25" width="96.5" height="39.5" fill="#0D0D0D" stroke="#181818" stroke-width="0.5"/>
<rect x="248.25" y="620.25" width="96.5" height="39.5" fill="#0D0D0D" stroke="#181818" stroke-width="0.5"/>
<rect x="345.25" y="620.25" width="96.5" height="39.5" fill="#0D0D0D" stroke="#181818" stroke-width="0.5"/>
<rect x="442.25" y="620.25" width="96.5" height="39.5" fill="#0D0D0D" stroke="#181818" stroke-width="0.5"/>
<rect x="539.25" y="620.25" width="96.5" height="39.5" fill="#0D0D0D" stroke="#181818" stroke-width="0.5"/>
<rect x="636.25" y="620.25" width="96.5" height="39.5" fill="#0D0D0D" stroke="#181818" stroke-width="0.5"/>
<rect x="733.25" y="620.25" width="96.5" height="39.5" fill="#0D0D0D" stroke="#181818" stroke-width="0.5"/>
<rect x="830.25" y="620.25" width="96.5" height="39.5" fill="#0D0D0D" stroke="#181818" stroke-width="0.5"/>
<rect x="927.25" y="620.25" width="96.5" height="39.5" fill="#181818" stroke="#252525" stroke-width="0.5"/>
<rect x="1024.25" y="620.25" width="96.5" height="39.5" fill="#0D0D0D" stroke="#181818" stroke-width="0.5"/>
<rect x="1121.25" y="620.25" width="96.5" height="39.5" fill="#0D0D0D" stroke="#181818" stroke-width="0.5"/>
<rect x="1218.25" y="620.25" width="96.5" height="39.5" fill="#0D0D0D" stroke="#181818" stroke-width="0.5"/>
<rect x="-42.75" y="660.25" width="96.5" height="39.5" fill="#0D0D0D" stroke="#181818" stroke-width="0.5"/>
<rect x="54.25" y="660.25" width="96.5" height="39.5" fill="#0D0D0D" stroke="#181818" stroke-width="0.5"/>
<rect x="151.25" y="660.25" width="96.5" height="39.5" fill="#0D0D0D" stroke="#181818" stroke-width="0.5"/>
<rect x="248.25" y="660.25" width="96.5" height="39.5" fill="#0D0D0D" stroke="#181818" stroke-width="0.5"/>
<rect x="345.25" y="660.25" width="96.5" height="39.5" fill="#0D0D0D" stroke="#181818" stroke-width="0.5"/>
<rect x="442.25" y="660.25" width="96.5" height="39.5" fill="#0D0D0D" stroke="#181818" stroke-width="0.5"/>
<rect x="539.25" y="660.25" width="96.5" height="39.5" fill="#0D0D0D" stroke="#181818" stroke-width="0.5"/>
<rect x="636.25" y="660.25" width="96.5" height="39.5" fill="#0D0D0D" stroke="#181818" stroke-width="0.5"/>
<rect x="733.25" y="660.25" width="96.5" height="39.5" fill="#0D0D0D" stroke="#181818" stroke-width="0.5"/>
<rect x="830.25" y="660.25" width="96.5" height="39.5" fill="#0D0D0D" stroke="#181818" stroke-width="0.5"/>
<rect x="927.25" y="660.25" width="96.5" height="39.5" fill="#181818" stroke="#252525" stroke-width="0.5"/>
<rect x="1024.25" y="660.25" width="96.5" height="39.5" fill="#0D0D0D" stroke="#181818" stroke-width="0.5"/>
<rect x="1121.25" y="660.25" width="96.5" height="39.5" fill="#0D0D0D" stroke="#181818" stroke-width="0.5"/>
<rect x="1218.25" y="660.25" width="96.5" height="39.5" fill="#0D0D0D" stroke="#181818" stroke-width="0.5"/>
<rect x="-180" y="-96" width="1632" height="872" fill="url(#paint0_radial_2001_4989)"/>
</g>
<defs>
<radialGradient id="paint0_radial_2001_4989" cx="0" cy="0" r="1" gradientUnits="userSpaceOnUse" gradientTransform="translate(636 340) rotate(90) scale(558.465 901.582)">
<stop stop-color="#0D0D0D" stop-opacity="0"/>
<stop offset="1" stop-color="#0D0D0D"/>
</radialGradient>
<clipPath id="clip0_2001_4989">
<rect width="1632" height="872" fill="white" transform="translate(-180 -96)"/>
</clipPath>
</defs>
</svg>
