<svg width="276" height="142" viewBox="0 0 276 142" fill="none" xmlns="http://www.w3.org/2000/svg">
<path d="M179.818 0V83.5294H96.1818V0H179.818ZM99.36 80.3553H176.64V3.17412H99.36V80.3553Z" fill="#252525"/>
<path d="M110.4 14.2H117.76V36.2518H110.4V14.2Z" fill="#252525"/>
<path d="M126.5 14.2H132.94V65.6541H126.5V14.2Z" fill="#252525"/>
<path d="M142.6 14.2H149.5V49.1153H142.6V14.2Z" fill="#252525"/>
<path d="M158.7 14.2H165.14V36.2518H158.7V14.2Z" fill="#252525"/>
<path d="M23.2009 124.172C23.2009 125.342 22.9898 126.38 22.5675 127.287C22.1675 128.194 21.6119 128.957 20.9008 129.578C20.2119 130.175 19.4007 130.628 18.4674 130.938C17.5562 131.249 16.6006 131.404 15.6006 131.404H2.83344V142H0V116.941H15.6006C16.6006 116.941 17.5562 117.096 18.4674 117.407C19.4007 117.717 20.2119 118.182 20.9008 118.803C21.6119 119.399 22.1675 120.151 22.5675 121.058C22.9898 121.965 23.2009 123.003 23.2009 124.172ZM20.3675 124.172C20.3675 122.669 19.9008 121.511 18.9674 120.7C18.0563 119.865 16.9007 119.447 15.5006 119.447H2.83344V128.898H15.5006C16.9007 128.898 18.0563 128.492 18.9674 127.681C19.9008 126.845 20.3675 125.676 20.3675 124.172Z" fill="#252525"/>
<path d="M59.1872 142L55.787 134.482H42.0199L38.6197 142H35.5196L47.1867 116.941H50.6202L62.2873 142H59.1872ZM48.9201 119.196L43.1532 132.012H54.6537L48.9201 119.196Z" fill="#252525"/>
<path d="M100.364 142L83.1295 119.447V142H80.2961V116.941H84.5629L101.83 139.494V116.941H104.664V142H100.364Z" fill="#252525"/>
<path d="M148.92 129.435C148.92 131.702 148.586 133.635 147.92 135.234C147.253 136.833 146.331 138.134 145.153 139.136C143.975 140.138 142.586 140.866 140.986 141.32C139.386 141.773 137.652 142 135.786 142H124.985V116.941H135.086C137.041 116.941 138.864 117.168 140.553 117.621C142.242 118.075 143.708 118.803 144.953 119.805C146.197 120.784 147.164 122.072 147.853 123.671C148.564 125.246 148.92 127.168 148.92 129.435ZM146.019 129.435C146.019 127.621 145.742 126.082 145.186 124.817C144.653 123.528 143.897 122.49 142.919 121.702C141.964 120.915 140.819 120.342 139.486 119.984C138.152 119.626 136.686 119.447 135.086 119.447H127.752V139.494H135.452C137.03 139.494 138.464 139.315 139.753 138.957C141.064 138.575 142.175 137.991 143.086 137.203C144.019 136.392 144.742 135.353 145.253 134.089C145.764 132.8 146.019 131.249 146.019 129.435Z" fill="#252525"/>
<path d="M167.917 142V116.941H188.951V119.447H170.75V127.824H186.851V130.33H170.75V139.494H189.151V142H167.917Z" fill="#252525"/>
<path d="M229.368 142L222.701 131.404H211.5V142H208.667V116.941H224.368C225.368 116.941 226.334 117.096 227.268 117.407C228.201 117.717 229.023 118.182 229.734 118.803C230.446 119.399 231.012 120.151 231.434 121.058C231.857 121.965 232.068 123.003 232.068 124.172C232.068 125.223 231.901 126.165 231.568 127.001C231.234 127.812 230.779 128.516 230.201 129.113C229.623 129.709 228.945 130.199 228.168 130.58C227.412 130.938 226.601 131.177 225.734 131.296L232.568 142H229.368ZM229.234 124.172C229.234 123.433 229.101 122.776 228.834 122.204C228.59 121.607 228.245 121.106 227.801 120.7C227.357 120.294 226.845 119.984 226.268 119.769C225.69 119.554 225.068 119.447 224.401 119.447H211.5V128.898H224.401C225.068 128.898 225.69 128.79 226.268 128.576C226.845 128.361 227.357 128.051 227.801 127.645C228.245 127.239 228.59 126.75 228.834 126.177C229.101 125.581 229.234 124.912 229.234 124.172Z" fill="#252525"/>
<path d="M272.9 142L269.5 134.482H255.733L252.332 142H249.232L260.899 116.941H264.333L276 142H272.9ZM262.633 119.196L256.866 132.012H268.366L262.633 119.196Z" fill="#252525"/>
</svg>
